<svg width="16" height="20" viewBox="0 0 16 20" fill="none" xmlns="http://www.w3.org/2000/svg">
<path d="M3.02524 0.0664062H12.6252C13.2618 0.0664063 13.8722 0.319263 14.3223 0.76935C14.7724 1.21944 15.0252 1.82989 15.0252 2.46641V16.8664C15.0252 17.5029 14.7724 18.1134 14.3223 18.5635C13.8722 19.0135 13.2618 19.2664 12.6252 19.2664H3.02524C2.38872 19.2664 1.77828 19.0135 1.32819 18.5635C0.8781 18.1134 0.625244 17.5029 0.625244 16.8664V2.46641C0.625244 1.82989 0.8781 1.21944 1.32819 0.76935C1.77828 0.319263 2.38872 0.0664063 3.02524 0.0664062ZM3.02524 1.26641C2.70698 1.26641 2.40176 1.39283 2.17672 1.61788C1.95167 1.84292 1.82524 2.14815 1.82524 2.46641V16.8664C1.82524 17.1847 1.95167 17.4899 2.17672 17.7149C2.40176 17.94 2.70698 18.0664 3.02524 18.0664H12.6252C12.9435 18.0664 13.2487 17.94 13.4738 17.7149C13.6988 17.4899 13.8252 17.1847 13.8252 16.8664V2.46641C13.8252 2.14815 13.6988 1.84292 13.4738 1.61788C13.2487 1.39283 12.9435 1.26641 12.6252 1.26641H3.02524Z" fill="black"/>
<path d="M11.4252 5.46646C11.4253 5.60689 11.3761 5.74288 11.2862 5.85077C11.1963 5.95865 11.0714 6.03158 10.9332 6.05686L10.8252 6.06646H4.82523C4.67529 6.06673 4.53069 6.01086 4.41989 5.90984C4.30909 5.80883 4.24012 5.66999 4.22658 5.52067C4.21303 5.37135 4.25588 5.22236 4.34669 5.10306C4.4375 4.98375 4.56969 4.90277 4.71723 4.87605L4.82523 4.86646H10.8252C10.9844 4.86646 11.137 4.92967 11.2495 5.04219C11.362 5.15471 11.4252 5.30733 11.4252 5.46646ZM11.4252 9.66645C11.4253 9.80689 11.3761 9.94288 11.2862 10.0508C11.1963 10.1586 11.0714 10.2316 10.9332 10.2569L10.8252 10.2665H4.82523C4.67529 10.2667 4.53069 10.2109 4.41989 10.1098C4.30909 10.0088 4.24012 9.86999 4.22658 9.72067C4.21303 9.57135 4.25588 9.42236 4.34669 9.30306C4.4375 9.18375 4.56969 9.10277 4.71723 9.07606L4.82523 9.06645H10.8252C10.9844 9.06645 11.137 9.12967 11.2495 9.24219C11.362 9.35471 11.4252 9.50732 11.4252 9.66645ZM11.4252 13.8665C11.4253 14.0069 11.3761 14.1429 11.2862 14.2508C11.1963 14.3586 11.0714 14.4316 10.9332 14.4569L10.8252 14.4665H4.82523C4.67529 14.4667 4.53069 14.4109 4.41989 14.3098C4.30909 14.2088 4.24012 14.07 4.22658 13.9207C4.21303 13.7713 4.25588 13.6224 4.34669 13.5031C4.4375 13.3837 4.56969 13.3028 4.71723 13.2761L4.82523 13.2665H10.8252C10.9844 13.2665 11.137 13.3297 11.2495 13.4422C11.362 13.5547 11.4252 13.7073 11.4252 13.8665Z" fill="black"/>
</svg>
