<svg width="18" height="21" viewBox="0 0 18 21" fill="none" xmlns="http://www.w3.org/2000/svg">
<path d="M7.9695 0.893168C8.248 0.629864 8.61673 0.483154 9 0.483154C9.38327 0.483154 9.752 0.629864 10.0305 0.893168L17.2965 7.76167C17.7465 8.18617 18 8.77867 18 9.39667V17.7517C18 18.3484 17.7629 18.9207 17.341 19.3427C16.919 19.7646 16.3467 20.0017 15.75 20.0017H12.75C12.4544 20.0017 12.1617 19.9434 11.8886 19.8303C11.6155 19.7171 11.3674 19.5512 11.1585 19.3421C10.9495 19.133 10.7838 18.8848 10.6708 18.6117C10.5579 18.3385 10.4998 18.0458 10.5 17.7502V14.0002C10.5 13.8013 10.421 13.6105 10.2803 13.4698C10.1397 13.3292 9.94891 13.2502 9.75 13.2502H8.25C8.05109 13.2502 7.86032 13.3292 7.71967 13.4698C7.57902 13.6105 7.5 13.8013 7.5 14.0002V17.7502C7.5 18.3469 7.26295 18.9192 6.84099 19.3412C6.41903 19.7631 5.84674 20.0002 5.25 20.0002H2.25C1.65326 20.0002 1.08097 19.7631 0.65901 19.3412C0.237053 18.9192 0 18.3469 0 17.7502V9.39517C0 8.77717 0.255 8.18467 0.705 7.76017L7.9695 0.890168V0.893168ZM9 1.98217L1.734 8.85217C1.66024 8.9221 1.60146 9.00629 1.56123 9.09964C1.52101 9.19298 1.50017 9.29353 1.5 9.39517V17.7502C1.5 17.9491 1.57902 18.1398 1.71967 18.2805C1.86032 18.4212 2.05109 18.5002 2.25 18.5002H5.25C5.44891 18.5002 5.63968 18.4212 5.78033 18.2805C5.92098 18.1398 6 17.9491 6 17.7502V14.0002C6 13.4034 6.23705 12.8311 6.65901 12.4092C7.08097 11.9872 7.65326 11.7502 8.25 11.7502H9.75C10.3467 11.7502 10.919 11.9872 11.341 12.4092C11.7629 12.8311 12 13.4034 12 14.0002V17.7502C12 17.9491 12.079 18.1398 12.2197 18.2805C12.3603 18.4212 12.5511 18.5002 12.75 18.5002H15.75C15.9489 18.5002 16.1397 18.4212 16.2803 18.2805C16.421 18.1398 16.5 17.9491 16.5 17.7502V9.39517C16.5 9.29327 16.4793 9.19244 16.4391 9.09882C16.3988 9.00521 16.3399 8.92077 16.266 8.85067L9 1.98217Z" fill="black"/>
</svg>
