<svg width="56" height="60" viewBox="0 0 56 60" fill="none" xmlns="http://www.w3.org/2000/svg">
<path d="M42.5282 28.3361C42.5282 20.3361 36.0002 13.8081 28.0002 13.8081C20.0002 13.8081 13.4722 20.3361 13.4722 28.3361C13.4722 29.4881 13.6002 30.6401 13.9202 31.7921C14.3042 33.6481 15.0082 34.8001 15.9682 36.4001C16.1602 36.7841 16.4162 37.1681 16.6722 37.6161C16.9922 38.1281 17.2482 38.6401 17.5682 39.0881C18.8482 41.2001 19.6162 42.4161 19.6162 44.9121V50.9281C19.6162 52.4641 20.7042 53.6801 22.1762 53.9361C22.8162 57.2001 24.7362 59.2481 28.0002 59.2481C31.2642 59.2481 33.2482 57.2001 33.8242 53.9361C35.2962 53.6801 36.3842 52.4001 36.3842 50.9281V44.9121C36.3842 42.4161 37.1522 41.1361 38.4322 39.0881C38.6882 38.6401 39.0082 38.1281 39.3282 37.6161C39.5842 37.1681 39.8402 36.7841 40.0322 36.4001C40.9922 34.8001 41.6962 33.6481 42.0802 31.7921C42.4002 30.6401 42.5282 29.4881 42.5282 28.3361ZM33.8882 46.4481H22.2402V44.9761C22.2402 44.6561 22.2402 44.4001 22.1762 44.1441H33.8882C33.8882 44.4001 33.8242 44.6561 33.8242 44.9761V46.4481H33.8882ZM33.3122 51.5041H22.6882C22.3682 51.5041 22.1762 51.2481 22.1762 50.9921V49.0081H33.8242V50.9921C33.8882 51.2481 33.6322 51.5041 33.3122 51.5041ZM28.0002 56.7521C27.2962 56.7521 25.5042 56.7521 24.8002 54.0641H31.2642C30.5602 56.7521 28.7042 56.7521 28.0002 56.7521ZM39.5842 31.2801C39.2642 32.6881 38.7522 33.6481 37.8562 35.1201C37.6002 35.5041 37.4082 35.8881 37.1522 36.3361C36.8322 36.8481 36.5762 37.3601 36.3202 37.7441C35.5522 39.0241 34.8482 40.1761 34.4002 41.5201H21.7282C21.2802 40.1761 20.6402 39.0241 19.8082 37.7441C19.5522 37.2961 19.2322 36.8481 18.9762 36.3361C18.7202 35.8881 18.4642 35.4401 18.2722 35.1201C17.3762 33.5841 16.8642 32.6881 16.5442 31.2161C16.2882 30.2561 16.1602 29.2961 16.1602 28.3361C16.1602 21.7441 21.5362 16.3681 28.1282 16.3681C34.7202 16.3681 40.0962 21.7441 40.0962 28.3361C39.9682 29.2961 39.8402 30.2561 39.5842 31.2801Z" fill="black"/>
<path d="M54.3679 27.0559H49.0559C48.3519 27.0559 47.7759 27.6319 47.7759 28.3359C47.7759 29.0399 48.3519 29.6159 49.0559 29.6159H54.3679C55.0719 29.6159 55.6479 29.0399 55.6479 28.3359C55.6479 27.6319 55.0719 27.0559 54.3679 27.0559Z" fill="black"/>
<path d="M42.8479 14.7679C43.1679 14.7679 43.4879 14.6399 43.7439 14.3839L47.5199 10.6079C48.0319 10.0959 48.0319 9.32788 47.5199 8.81588C47.0079 8.30388 46.2399 8.30388 45.7279 8.81588L41.9519 12.5919C41.4399 13.1039 41.4399 13.8719 41.9519 14.3839C42.2079 14.6399 42.5279 14.7679 42.8479 14.7679Z" fill="black"/>
<path d="M27.9997 8.55998C28.7037 8.55998 29.2797 7.98398 29.2797 7.27998V1.96799C29.2797 1.26399 28.7037 0.687988 27.9997 0.687988C27.2957 0.687988 26.7197 1.26399 26.7197 1.96799V7.27998C26.7197 7.98398 27.2957 8.55998 27.9997 8.55998Z" fill="black"/>
<path d="M12.2562 14.3839C12.5122 14.6399 12.8322 14.7679 13.1522 14.7679C13.4722 14.7679 13.7922 14.6399 14.0482 14.3839C14.5602 13.8719 14.5602 13.1039 14.0482 12.5919L10.2722 8.81588C9.76018 8.30388 8.99219 8.30388 8.48019 8.81588C7.96819 9.32788 7.96819 10.0959 8.48019 10.6079L12.2562 14.3839Z" fill="black"/>
<path d="M7.00801 27.0559H1.69602C0.992016 27.0559 0.416016 27.6319 0.416016 28.3359C0.416016 29.0399 0.992016 29.6159 1.69602 29.6159H7.00801C7.71201 29.6159 8.28801 29.0399 8.28801 28.3359C8.28801 27.6319 7.71201 27.0559 7.00801 27.0559Z" fill="black"/>
</svg>
