<svg width="24" height="25" viewBox="0 0 24 25" fill="none" xmlns="http://www.w3.org/2000/svg">
<path d="M8.25 18.3335H15.75V19.8335H8.25V18.3335Z" fill="black"/>
<path d="M9.75 21.3335H14.25V22.8335H9.75V21.3335Z" fill="black"/>
<path d="M12 1.8335C10.0109 1.8335 8.10322 2.62367 6.6967 4.0302C5.29018 5.43672 4.5 7.34437 4.5 9.3335C4.44928 10.4235 4.65808 11.51 5.10922 12.5035C5.56036 13.4971 6.24095 14.3693 7.095 15.0485C7.845 15.746 8.25 16.1435 8.25 16.8335H9.75C9.75 15.4535 8.9175 14.681 8.1075 13.9385C7.40652 13.4017 6.84785 12.7012 6.48044 11.8984C6.11302 11.0955 5.94806 10.2149 6 9.3335C6 7.7422 6.63214 6.21607 7.75736 5.09086C8.88258 3.96564 10.4087 3.3335 12 3.3335C13.5913 3.3335 15.1174 3.96564 16.2426 5.09086C17.3679 6.21607 18 7.7422 18 9.3335C18.0511 10.2155 17.885 11.0966 17.5162 11.8995C17.1475 12.7024 16.5874 13.4025 15.885 13.9385C15.0825 14.6885 14.25 15.4385 14.25 16.8335H15.75C15.75 16.1435 16.1475 15.746 16.905 15.041C17.7585 14.363 18.4387 13.492 18.8899 12.4998C19.341 11.5075 19.5501 10.4223 19.5 9.3335C19.5 8.34858 19.306 7.37331 18.9291 6.46337C18.5522 5.55343 17.9997 4.72663 17.3033 4.0302C16.6069 3.33376 15.7801 2.78131 14.8701 2.4044C13.9602 2.02749 12.9849 1.8335 12 1.8335Z" fill="black"/>
</svg>
