<svg width="25" height="24" viewBox="0 0 25 24" fill="none" xmlns="http://www.w3.org/2000/svg">
<path d="M2.79939 6C2.79939 4.93913 3.21698 3.92172 3.96028 3.17157C4.70359 2.42143 5.71173 2 6.76292 2H18.6535C19.7047 2 20.7128 2.42143 21.4561 3.17157C22.1994 3.92172 22.617 4.93913 22.617 6V18C22.617 19.0609 22.1994 20.0783 21.4561 20.8284C20.7128 21.5786 19.7047 22 18.6535 22H6.76292C5.71173 22 4.70359 21.5786 3.96028 20.8284C3.21698 20.0783 2.79939 19.0609 2.79939 18V6Z" stroke="black" stroke-width="1.5" stroke-linecap="round" stroke-linejoin="round"/>
<path d="M9.24013 11C10.6082 11 11.7173 9.88071 11.7173 8.5C11.7173 7.11929 10.6082 6 9.24013 6C7.87201 6 6.76292 7.11929 6.76292 8.5C6.76292 9.88071 7.87201 11 9.24013 11Z" stroke="black" stroke-width="1.5" stroke-linecap="round" stroke-linejoin="round"/>
<path d="M15.2112 12.6211L6.76292 22.0001H18.7853C19.8015 22.0001 20.7761 21.5926 21.4947 20.8674C22.2133 20.1422 22.617 19.1586 22.617 18.1331V18.0001C22.617 17.5341 22.4436 17.3551 22.1315 17.0101L18.1382 12.6151C17.9521 12.4102 17.7257 12.2467 17.4735 12.135C17.2213 12.0234 16.9488 11.966 16.6734 11.9666C16.398 11.9671 16.1257 12.0256 15.874 12.1383C15.6222 12.251 15.3965 12.4154 15.2112 12.6211V12.6211Z" stroke="black" stroke-width="1.5" stroke-linecap="round" stroke-linejoin="round"/>
</svg>
