<svg width="24" height="25" viewBox="0 0 24 25" fill="none" xmlns="http://www.w3.org/2000/svg">
<path d="M4 4.66675V20.6667C4 21.1972 4.21071 21.7059 4.58579 22.081C4.96086 22.456 5.46957 22.6667 6 22.6667H18C18.5304 22.6667 19.0391 22.456 19.4142 22.081C19.7893 21.7059 20 21.1972 20 20.6667V9.00875C20 8.74231 19.9467 8.47856 19.8433 8.23299C19.7399 7.98743 19.5885 7.76499 19.398 7.57875L14.958 3.23675C14.5844 2.87141 14.0826 2.66681 13.56 2.66675H6C5.46957 2.66675 4.96086 2.87746 4.58579 3.25253C4.21071 3.62761 4 4.13632 4 4.66675V4.66675Z" stroke="black" stroke-linecap="round" stroke-linejoin="round"/>
<path d="M9 13.6667H15" stroke="black" stroke-linecap="round" stroke-linejoin="round"/>
<path d="M9 17.6667H12" stroke="black" stroke-linecap="round" stroke-linejoin="round"/>
<path d="M14 2.66675V6.66675C14 7.19718 14.2107 7.70589 14.5858 8.08096C14.9609 8.45603 15.4696 8.66675 16 8.66675H20" stroke="black" stroke-linejoin="round"/>
</svg>
