<svg width="24" height="18" viewBox="0 0 24 18" fill="none" xmlns="http://www.w3.org/2000/svg">
<path d="M22.5 18.0002C22.5 18.0002 24 18.0002 24 16.5002C24 15.0002 22.5 10.5002 16.5 10.5002C10.5 10.5002 9 15.0002 9 16.5002C9 18.0002 10.5 18.0002 10.5 18.0002H22.5ZM10.533 16.5002C10.5219 16.4987 10.5109 16.4967 10.5 16.4942C10.5015 16.0982 10.7505 14.9492 11.64 13.9142C12.468 12.9437 13.923 12.0002 16.5 12.0002C19.0755 12.0002 20.5305 12.9452 21.36 13.9142C22.2495 14.9492 22.497 16.0997 22.5 16.4942L22.488 16.4972C22.481 16.4984 22.474 16.4994 22.467 16.5002H10.533ZM16.5 7.50024C17.2956 7.50024 18.0587 7.18417 18.6213 6.62156C19.1839 6.05896 19.5 5.29589 19.5 4.50024C19.5 3.70459 19.1839 2.94153 18.6213 2.37892C18.0587 1.81631 17.2956 1.50024 16.5 1.50024C15.7044 1.50024 14.9413 1.81631 14.3787 2.37892C13.8161 2.94153 13.5 3.70459 13.5 4.50024C13.5 5.29589 13.8161 6.05896 14.3787 6.62156C14.9413 7.18417 15.7044 7.50024 16.5 7.50024ZM21 4.50024C21 5.09119 20.8836 5.67635 20.6575 6.22232C20.4313 6.76828 20.0998 7.26436 19.682 7.68222C19.2641 8.10009 18.768 8.43156 18.2221 8.6577C17.6761 8.88385 17.0909 9.00024 16.5 9.00024C15.9091 9.00024 15.3239 8.88385 14.7779 8.6577C14.232 8.43156 13.7359 8.10009 13.318 7.68222C12.9002 7.26436 12.5687 6.76828 12.3425 6.22232C12.1164 5.67635 12 5.09119 12 4.50024C12 3.30677 12.4741 2.16218 13.318 1.31826C14.1619 0.47435 15.3065 0.000244141 16.5 0.000244141C17.6935 0.000244141 18.8381 0.47435 19.682 1.31826C20.5259 2.16218 21 3.30677 21 4.50024ZM10.404 10.9202C9.80397 10.7313 9.18545 10.6071 8.559 10.5497C8.207 10.5163 7.85359 10.4998 7.5 10.5002C1.5 10.5002 0 15.0002 0 16.5002C0 17.5007 0.4995 18.0002 1.5 18.0002H7.824C7.60163 17.532 7.49074 17.0186 7.5 16.5002C7.5 14.9852 8.0655 13.4372 9.135 12.1442C9.4995 11.7032 9.924 11.2907 10.404 10.9202ZM7.38 12.0002C6.49223 13.3342 6.01266 14.898 6 16.5002H1.5C1.5 16.1102 1.746 14.9552 2.64 13.9142C3.4575 12.9602 4.878 12.0302 7.38 12.0017V12.0002ZM2.25 5.25024C2.25 4.05677 2.72411 2.91218 3.56802 2.06826C4.41193 1.22435 5.55653 0.750244 6.75 0.750244C7.94347 0.750244 9.08807 1.22435 9.93198 2.06826C10.7759 2.91218 11.25 4.05677 11.25 5.25024C11.25 6.44372 10.7759 7.58831 9.93198 8.43222C9.08807 9.27614 7.94347 9.75024 6.75 9.75024C5.55653 9.75024 4.41193 9.27614 3.56802 8.43222C2.72411 7.58831 2.25 6.44372 2.25 5.25024ZM6.75 2.25024C5.95435 2.25024 5.19129 2.56631 4.62868 3.12892C4.06607 3.69153 3.75 4.45459 3.75 5.25024C3.75 6.04589 4.06607 6.80896 4.62868 7.37156C5.19129 7.93417 5.95435 8.25024 6.75 8.25024C7.54565 8.25024 8.30871 7.93417 8.87132 7.37156C9.43393 6.80896 9.75 6.04589 9.75 5.25024C9.75 4.45459 9.43393 3.69153 8.87132 3.12892C8.30871 2.56631 7.54565 2.25024 6.75 2.25024Z" fill="black"/>
</svg>
