<svg width="54" height="51" viewBox="0 0 54 51" fill="none" xmlns="http://www.w3.org/2000/svg">
<path d="M36.3335 2.66667C45.8699 2.66667 53.6668 10.4636 53.6668 20C53.6668 29.0468 46.6302 36.5534 37.6984 37.2579C35.2003 40.6201 31.264 42.6667 27.0002 42.6667C22.6584 42.6667 18.6756 40.5287 16.1928 37.0511C15.3229 37.2372 14.4988 37.3333 13.6668 37.3333C6.33045 37.3333 0.333496 31.3364 0.333496 24C0.333496 18.6221 3.60612 13.8563 8.47033 11.7819C9.25018 5.14342 14.8925 0 21.6668 0C25.0699 0 28.2756 1.31761 30.7275 3.61357C32.5279 2.9903 34.4119 2.66667 36.3335 2.66667ZM51.0002 20C51.0002 11.9364 44.3971 5.33333 36.3335 5.33333C34.4593 5.33333 32.6272 5.69816 30.8914 6.39902C30.3807 6.60519 29.7959 6.47625 29.4193 6.07448C27.3953 3.91498 24.6221 2.66667 21.6668 2.66667C16.024 2.66667 11.3528 7.14839 11.0597 12.7918C11.0317 13.3315 10.6807 13.8008 10.1711 13.9803C5.91404 15.4795 3.00016 19.4737 3.00016 24C3.00016 29.8636 7.80321 34.6667 13.6668 34.6667C14.5318 34.6667 15.416 34.5264 16.4346 34.2474C17.0075 34.0904 17.6152 34.3315 17.9248 34.8385C19.8668 38.0187 23.2712 40 27.0002 40C30.5895 40 33.8924 38.1827 35.8704 35.2243C36.1073 34.87 36.4991 34.6503 36.9249 34.6331C44.7437 34.3167 51.0002 27.8364 51.0002 20ZM13.6668 45.3333C13.6668 43.8617 12.4718 42.6667 11.0002 42.6667C9.52854 42.6667 8.3335 43.8617 8.3335 45.3333C8.3335 46.805 9.52854 48 11.0002 48C12.4718 48 13.6668 46.805 13.6668 45.3333ZM16.3335 45.3333C16.3335 48.2777 13.9445 50.6667 11.0002 50.6667C8.05578 50.6667 5.66683 48.2777 5.66683 45.3333C5.66683 42.389 8.05578 40 11.0002 40C13.9445 40 16.3335 42.389 16.3335 45.3333Z" fill="black"/>
</svg>
