<svg width="25" height="16" viewBox="0 0 25 16" fill="none" xmlns="http://www.w3.org/2000/svg">
<path fill-rule="evenodd" clip-rule="evenodd" d="M0.577637 3.5C0.577637 2.70435 0.890825 1.94129 1.4483 1.37868C2.00578 0.81607 2.76189 0.5 3.55028 0.5H14.6977C15.4187 0.499914 16.1152 0.764289 16.6574 1.24389C17.1996 1.72349 17.5506 2.38563 17.6451 3.107L22.2675 1.034C22.4938 0.932257 22.7417 0.889195 22.9886 0.908728C23.2355 0.928261 23.4737 1.00977 23.6815 1.14584C23.8893 1.28192 24.0601 1.46824 24.1784 1.68789C24.2967 1.90753 24.3587 2.15352 24.3588 2.4035V13.5965C24.3586 13.8463 24.2966 14.0921 24.1784 14.3115C24.0602 14.531 23.8895 14.7172 23.6819 14.8532C23.4744 14.9893 23.2364 15.0708 22.9897 15.0905C22.7429 15.1102 22.4952 15.0674 22.269 14.966L17.6451 12.893C17.5506 13.6144 17.1996 14.2765 16.6574 14.7561C16.1152 15.2357 15.4187 15.5001 14.6977 15.5H3.55028C2.76189 15.5 2.00578 15.1839 1.4483 14.6213C0.890825 14.0587 0.577637 13.2956 0.577637 12.5V3.5ZM17.6703 11.2625L22.8725 13.5965V2.4035L17.6703 4.7375V11.2625ZM3.55028 2C3.15608 2 2.77803 2.15804 2.49929 2.43934C2.22055 2.72064 2.06396 3.10218 2.06396 3.5V12.5C2.06396 12.8978 2.22055 13.2794 2.49929 13.5607C2.77803 13.842 3.15608 14 3.55028 14H14.6977C15.0919 14 15.4699 13.842 15.7487 13.5607C16.0274 13.2794 16.184 12.8978 16.184 12.5V3.5C16.184 3.10218 16.0274 2.72064 15.7487 2.43934C15.4699 2.15804 15.0919 2 14.6977 2H3.55028Z" fill="black"/>
</svg>
